<svg xmlns="http://www.w3.org/2000/svg" xmlns:xlink="http://www.w3.org/1999/xlink" width="500" zoomAndPan="magnify" viewBox="0 0 375 374.999991" height="500" preserveAspectRatio="xMidYMid meet" version="1.0"><defs><g/><clipPath id="9f2499aea7"><path d="M 37.5 109.097656 L 172.25 109.097656 L 172.25 265.957031 L 37.5 265.957031 Z M 37.5 109.097656 " clip-rule="nonzero"/></clipPath><clipPath id="a5e4c11281"><path d="M 104.875 109.097656 L 172.25 148.300781 L 172.25 226.699219 L 104.875 265.902344 L 37.5 226.699219 L 37.5 148.300781 Z M 104.875 109.097656 " clip-rule="nonzero"/></clipPath><clipPath id="4544037a09"><path d="M 41.707031 114.476562 L 168.046875 114.476562 L 168.046875 261.546875 L 41.707031 261.546875 Z M 41.707031 114.476562 " clip-rule="nonzero"/></clipPath><clipPath id="9f2d6ca018"><path d="M 104.875 114.476562 L 168.046875 151.230469 L 168.046875 224.738281 L 104.875 261.492188 L 41.707031 224.738281 L 41.707031 151.230469 Z M 104.875 114.476562 " clip-rule="nonzero"/></clipPath><clipPath id="24c69aef9d"><path d="M 48.460938 122.335938 L 161.292969 122.335938 L 161.292969 253.679688 L 48.460938 253.679688 Z M 48.460938 122.335938 " clip-rule="nonzero"/></clipPath><clipPath id="9c67d27b90"><path d="M 104.875 122.335938 L 161.292969 155.160156 L 161.292969 220.808594 L 104.875 253.632812 L 48.460938 220.808594 L 48.460938 155.160156 Z M 104.875 122.335938 " clip-rule="nonzero"/></clipPath><clipPath id="8879a83137"><path d="M 139.160156 156 L 251.660156 156 L 251.660156 219.96875 L 139.160156 219.96875 Z M 139.160156 156 " clip-rule="nonzero"/></clipPath><clipPath id="e63d3617ee"><path d="M 54.496094 128.875 L 155.257812 128.875 L 155.257812 246.167969 L 54.496094 246.167969 Z M 54.496094 128.875 " clip-rule="nonzero"/></clipPath><clipPath id="c1818cdec1"><path d="M 104.875 128.875 L 155.257812 158.1875 L 155.257812 216.8125 L 104.875 246.125 L 54.496094 216.8125 L 54.496094 158.1875 Z M 104.875 128.875 " clip-rule="nonzero"/></clipPath><clipPath id="6da88c32f0"><path d="M 70.347656 164.6875 L 145.347656 164.6875 L 145.347656 211.1875 L 70.347656 211.1875 Z M 70.347656 164.6875 " clip-rule="nonzero"/></clipPath></defs><rect x="-37.5" width="450" fill="#ffffff" y="-37.499999" height="449.999989" fill-opacity="1"/><rect x="-37.5" width="450" fill="#ffffff" y="-37.499999" height="449.999989" fill-opacity="1"/><g clip-path="url(#9f2499aea7)"><g clip-path="url(#a5e4c11281)"><path fill="#231991" d="M 37.5 109.097656 L 172.25 109.097656 L 172.25 265.957031 L 37.5 265.957031 Z M 37.5 109.097656 " fill-opacity="1" fill-rule="nonzero"/></g></g><g clip-path="url(#4544037a09)"><g clip-path="url(#9f2d6ca018)"><path fill="#ffffff" d="M 41.707031 114.476562 L 168.046875 114.476562 L 168.046875 261.546875 L 41.707031 261.546875 Z M 41.707031 114.476562 " fill-opacity="1" fill-rule="nonzero"/><path fill="#ffffff" d="M 41.707031 114.476562 L 168.046875 114.476562 L 168.046875 261.546875 L 41.707031 261.546875 Z M 41.707031 114.476562 " fill-opacity="1" fill-rule="nonzero"/></g></g><g clip-path="url(#24c69aef9d)"><g clip-path="url(#9c67d27b90)"><path fill="#231991" d="M 48.460938 122.335938 L 161.292969 122.335938 L 161.292969 253.679688 L 48.460938 253.679688 Z M 48.460938 122.335938 " fill-opacity="1" fill-rule="nonzero"/></g></g><g clip-path="url(#8879a83137)"><path fill="#ffffff" d="M 139.160156 156 L 251.601562 156 L 251.601562 219.96875 L 139.160156 219.96875 Z M 139.160156 156 " fill-opacity="1" fill-rule="nonzero"/></g><g clip-path="url(#e63d3617ee)"><g clip-path="url(#c1818cdec1)"><path fill="#ffffff" d="M 54.496094 128.875 L 155.257812 128.875 L 155.257812 246.167969 L 54.496094 246.167969 Z M 54.496094 128.875 " fill-opacity="1" fill-rule="nonzero"/></g></g><g clip-path="url(#6da88c32f0)"><path fill="#231991" d="M 80.683594 203.417969 C 80.539062 203.496094 80.359375 203.511719 80.1875 203.453125 L 70.769531 200.167969 C 70.519531 200.078125 70.347656 199.84375 70.347656 199.574219 L 70.347656 186.519531 C 70.347656 186.496094 70.351562 186.472656 70.351562 186.449219 L 71.609375 175.097656 C 71.644531 174.78125 71.910156 174.539062 72.230469 174.539062 L 75.007812 174.539062 C 75.269531 174.539062 75.503906 174.703125 75.59375 174.949219 L 75.757812 175.386719 L 87.832031 178 L 89.179688 165.246094 C 89.214844 164.929688 89.480469 164.6875 89.800781 164.6875 L 113.566406 164.6875 C 113.761719 164.6875 113.945312 164.777344 114.0625 164.933594 C 114.183594 165.089844 114.222656 165.289062 114.171875 165.476562 L 113.035156 169.636719 C 112.964844 169.90625 112.714844 170.097656 112.433594 170.097656 L 111.960938 170.097656 L 115.460938 183.980469 L 119.882812 184.941406 L 122.511719 184.941406 C 122.859375 184.941406 123.136719 185.21875 123.136719 185.566406 L 123.136719 186.632812 C 123.378906 186.652344 123.597656 186.8125 123.679688 187.058594 L 127.113281 197.453125 L 129.597656 193.253906 C 129.710938 193.0625 129.917969 192.945312 130.140625 192.945312 L 132.992188 192.945312 C 133.15625 192.945312 133.3125 193.007812 133.429688 193.121094 L 145.113281 204.410156 C 145.289062 204.585938 145.347656 204.851562 145.257812 205.085938 C 145.167969 205.320312 144.949219 205.476562 144.699219 205.484375 L 126.34375 206.152344 C 126.15625 206.15625 125.976562 206.078125 125.851562 205.9375 C 125.726562 205.796875 125.671875 205.609375 125.703125 205.421875 L 125.941406 203.992188 L 124.835938 204.285156 C 124.609375 204.347656 124.371094 204.277344 124.214844 204.105469 L 122.425781 202.167969 C 122.421875 202.179688 122.421875 202.1875 122.421875 202.199219 C 122.398438 202.402344 122.285156 202.578125 122.113281 202.679688 C 122.113281 202.679688 121.648438 202.945312 121.648438 202.945312 C 121.5625 203.421875 121.4375 203.890625 121.273438 204.347656 L 121.539062 204.8125 C 121.640625 204.984375 121.652344 205.199219 121.570312 205.382812 C 121.296875 205.972656 120.972656 206.535156 120.597656 207.0625 C 120.480469 207.226562 120.292969 207.324219 120.085938 207.324219 C 120.085938 207.324219 119.558594 207.324219 119.558594 207.324219 C 119.242188 207.695312 118.898438 208.035156 118.53125 208.351562 L 118.53125 208.882812 C 118.53125 209.085938 118.429688 209.273438 118.269531 209.394531 C 117.738281 209.769531 117.175781 210.09375 116.585938 210.363281 C 116.402344 210.445312 116.191406 210.4375 116.015625 210.335938 C 116.015625 210.335938 115.554688 210.070312 115.554688 210.070312 C 115.097656 210.230469 114.628906 210.355469 114.148438 210.445312 L 113.886719 210.90625 C 113.78125 211.082031 113.601562 211.195312 113.402344 211.214844 C 112.761719 211.277344 112.109375 211.277344 111.460938 211.214844 C 111.261719 211.195312 111.082031 211.082031 110.984375 210.90625 C 110.984375 210.90625 110.714844 210.445312 110.714844 210.445312 C 110.238281 210.355469 109.769531 210.230469 109.3125 210.070312 L 108.855469 210.335938 C 108.679688 210.4375 108.464844 210.445312 108.28125 210.363281 C 107.691406 210.09375 107.128906 209.769531 106.601562 209.394531 C 106.433594 209.273438 106.339844 209.085938 106.339844 208.882812 C 106.339844 208.882812 106.339844 208.351562 106.339844 208.351562 C 105.972656 208.035156 105.625 207.695312 105.3125 207.324219 L 104.777344 207.324219 C 104.578125 207.324219 104.390625 207.226562 104.269531 207.0625 C 103.894531 206.535156 103.566406 205.972656 103.300781 205.382812 C 103.21875 205.199219 103.226562 204.984375 103.324219 204.8125 C 103.324219 204.8125 103.59375 204.347656 103.59375 204.347656 C 103.550781 204.234375 103.515625 204.121094 103.480469 204.003906 L 98.757812 204.003906 C 98.71875 204.121094 98.683594 204.234375 98.644531 204.347656 L 98.90625 204.8125 C 99.007812 204.984375 99.019531 205.199219 98.9375 205.382812 C 98.664062 205.972656 98.34375 206.535156 97.964844 207.0625 C 97.847656 207.226562 97.660156 207.324219 97.453125 207.324219 C 97.453125 207.324219 96.925781 207.324219 96.925781 207.324219 C 96.609375 207.695312 96.265625 208.035156 95.898438 208.351562 L 95.898438 208.882812 C 95.898438 209.085938 95.796875 209.273438 95.636719 209.394531 C 95.105469 209.769531 94.546875 210.09375 93.953125 210.363281 C 93.769531 210.445312 93.558594 210.4375 93.382812 210.335938 C 93.382812 210.335938 92.921875 210.070312 92.921875 210.070312 C 92.464844 210.230469 91.996094 210.355469 91.519531 210.445312 L 91.253906 210.90625 C 91.152344 211.082031 90.976562 211.195312 90.769531 211.214844 C 90.128906 211.277344 89.476562 211.277344 88.832031 211.214844 C 88.628906 211.195312 88.449219 211.082031 88.351562 210.90625 C 88.351562 210.90625 88.082031 210.445312 88.082031 210.445312 C 87.609375 210.355469 87.140625 210.230469 86.679688 210.070312 L 86.222656 210.335938 C 86.046875 210.4375 85.835938 210.445312 85.652344 210.363281 C 85.058594 210.09375 84.496094 209.769531 83.96875 209.394531 C 83.800781 209.273438 83.707031 209.085938 83.707031 208.882812 C 83.707031 208.882812 83.707031 208.351562 83.707031 208.351562 C 83.339844 208.035156 82.992188 207.695312 82.679688 207.324219 L 82.144531 207.324219 C 81.945312 207.324219 81.757812 207.226562 81.640625 207.0625 C 81.261719 206.535156 80.933594 205.972656 80.667969 205.382812 C 80.585938 205.199219 80.59375 204.984375 80.699219 204.8125 C 80.699219 204.8125 80.960938 204.347656 80.960938 204.347656 C 80.851562 204.042969 80.761719 203.730469 80.683594 203.417969 Z M 76.269531 176.777344 L 77.21875 179.335938 L 97.113281 184.292969 C 97.390625 184.363281 97.589844 184.613281 97.589844 184.898438 L 97.589844 187.960938 L 99.207031 189.074219 L 101.105469 187.777344 C 101.191406 187.71875 101.289062 187.679688 101.390625 187.667969 C 108.140625 186.9375 113.9375 188.238281 118.914062 191.289062 C 118.945312 191.304688 118.972656 191.324219 119 191.34375 C 121.113281 193.152344 123.152344 195.078125 123.171875 200.039062 L 123.800781 199.621094 L 122.90625 194.335938 L 122.882812 194.273438 C 122.855469 194.195312 122.847656 194.113281 122.851562 194.035156 L 121.894531 188.398438 C 121.890625 188.363281 121.886719 188.328125 121.886719 188.292969 L 121.886719 187.457031 C 121.886719 187.449219 121.886719 187.441406 121.886719 187.433594 L 121.886719 186.191406 L 119.816406 186.191406 C 119.769531 186.191406 119.730469 186.1875 119.683594 186.175781 Z M 77.738281 180.757812 L 77.945312 181.300781 L 78.554688 180.960938 Z M 78.382812 182.488281 L 79.382812 185.199219 L 80.484375 186.589844 L 91.359375 186.589844 C 91.707031 186.589844 91.984375 186.867188 91.984375 187.214844 L 91.984375 187.277344 L 96.335938 187.277344 L 96.335938 185.386719 L 80.300781 181.394531 C 80.269531 181.425781 80.230469 181.449219 80.191406 181.472656 L 78.417969 182.46875 C 78.40625 182.476562 78.394531 182.484375 78.382812 182.488281 Z M 81.476562 187.839844 L 82.675781 189.355469 C 84.175781 189.355469 90.734375 189.355469 90.734375 189.355469 L 90.734375 187.839844 Z M 83.667969 190.605469 C 83.761719 190.738281 83.796875 190.90625 83.773438 191.066406 L 83.183594 194.585938 C 83.351562 194.421875 83.527344 194.261719 83.707031 194.105469 L 83.707031 193.574219 C 83.707031 193.371094 83.800781 193.183594 83.96875 193.066406 C 84.496094 192.6875 85.058594 192.363281 85.652344 192.09375 C 85.835938 192.011719 86.046875 192.023438 86.222656 192.125 C 86.222656 192.125 86.679688 192.390625 86.679688 192.390625 C 87.140625 192.226562 87.609375 192.101562 88.082031 192.011719 L 88.351562 191.550781 C 88.449219 191.378906 88.628906 191.261719 88.832031 191.242188 C 89.476562 191.179688 90.128906 191.179688 90.769531 191.242188 C 90.976562 191.261719 91.152344 191.378906 91.253906 191.550781 C 91.253906 191.550781 91.519531 192.011719 91.519531 192.011719 C 91.996094 192.101562 92.464844 192.226562 92.921875 192.390625 L 93.382812 192.125 C 93.558594 192.023438 93.769531 192.011719 93.953125 192.09375 C 94.546875 192.363281 95.105469 192.6875 95.636719 193.066406 C 95.796875 193.183594 95.898438 193.371094 95.898438 193.574219 C 95.898438 193.574219 95.898438 194.105469 95.898438 194.105469 C 96.265625 194.421875 96.609375 194.765625 96.925781 195.132812 L 97.453125 195.132812 C 97.660156 195.132812 97.847656 195.230469 97.964844 195.394531 C 98.34375 195.921875 98.664062 196.484375 98.9375 197.078125 C 99.019531 197.261719 99.007812 197.472656 98.90625 197.648438 C 98.90625 197.648438 98.644531 198.109375 98.644531 198.109375 C 98.804688 198.566406 98.929688 199.035156 99.019531 199.511719 L 99.480469 199.777344 C 99.652344 199.878906 99.765625 200.058594 99.789062 200.257812 C 99.851562 200.902344 99.851562 201.554688 99.789062 202.199219 C 99.765625 202.402344 99.652344 202.578125 99.480469 202.679688 C 99.480469 202.679688 99.425781 202.710938 99.355469 202.753906 L 102.882812 202.753906 L 102.757812 202.679688 C 102.582031 202.578125 102.464844 202.402344 102.445312 202.199219 C 102.382812 201.554688 102.382812 200.902344 102.445312 200.257812 C 102.464844 200.058594 102.582031 199.878906 102.757812 199.777344 C 102.757812 199.777344 103.21875 199.511719 103.21875 199.511719 C 103.304688 199.035156 103.429688 198.566406 103.59375 198.109375 L 103.324219 197.648438 C 103.226562 197.472656 103.21875 197.261719 103.300781 197.078125 C 103.566406 196.484375 103.894531 195.921875 104.269531 195.394531 C 104.390625 195.230469 104.578125 195.132812 104.777344 195.132812 C 104.777344 195.132812 105.3125 195.132812 105.3125 195.132812 C 105.625 194.765625 105.972656 194.421875 106.339844 194.105469 L 106.339844 193.574219 C 106.339844 193.371094 106.433594 193.183594 106.601562 193.066406 C 107.128906 192.6875 107.691406 192.363281 108.28125 192.09375 C 108.464844 192.011719 108.679688 192.023438 108.855469 192.125 C 108.855469 192.125 109.3125 192.390625 109.3125 192.390625 C 109.769531 192.226562 110.238281 192.101562 110.714844 192.011719 L 110.984375 191.550781 C 111.082031 191.378906 111.261719 191.261719 111.460938 191.242188 C 112.109375 191.179688 112.761719 191.179688 113.402344 191.242188 C 113.601562 191.261719 113.78125 191.378906 113.886719 191.550781 C 113.886719 191.550781 114.148438 192.011719 114.148438 192.011719 C 114.628906 192.101562 115.097656 192.226562 115.554688 192.390625 L 116.015625 192.125 C 116.191406 192.023438 116.402344 192.011719 116.585938 192.09375 C 117.175781 192.363281 117.738281 192.6875 118.269531 193.066406 C 118.429688 193.183594 118.53125 193.371094 118.53125 193.574219 C 118.53125 193.574219 118.53125 194.105469 118.53125 194.105469 C 118.898438 194.421875 119.242188 194.765625 119.558594 195.132812 L 120.085938 195.132812 C 120.292969 195.132812 120.480469 195.230469 120.597656 195.394531 C 120.960938 195.902344 121.273438 196.441406 121.535156 197.007812 C 120.910156 194.734375 119.585938 193.5 118.222656 192.328125 C 113.515625 189.457031 108.042969 188.238281 101.683594 188.898438 L 99.5625 190.351562 C 99.347656 190.496094 99.070312 190.496094 98.851562 190.351562 L 98.230469 189.921875 L 91.984375 189.921875 L 91.984375 189.980469 C 91.984375 190.328125 91.707031 190.605469 91.359375 190.605469 Z M 81.808594 195.234375 L 82.492188 191.132812 L 78.339844 185.898438 C 78.296875 185.847656 78.265625 185.789062 78.242188 185.726562 C 78.242188 185.726562 74.570312 175.792969 74.570312 175.792969 L 72.789062 175.792969 L 71.601562 186.554688 C 71.601562 186.554688 71.601562 199.132812 71.601562 199.132812 L 79.796875 201.992188 C 79.753906 201.414062 79.757812 200.835938 79.816406 200.257812 C 79.832031 200.058594 79.949219 199.878906 80.125 199.777344 C 80.125 199.777344 80.585938 199.511719 80.585938 199.511719 C 80.671875 199.035156 80.800781 198.566406 80.960938 198.109375 L 80.699219 197.648438 C 80.59375 197.472656 80.585938 197.261719 80.667969 197.078125 C 80.933594 196.484375 81.261719 195.921875 81.640625 195.394531 C 81.6875 195.332031 81.746094 195.277344 81.808594 195.234375 Z M 89.054688 178.265625 L 90.765625 178.636719 L 91.832031 168.46875 C 91.863281 168.152344 92.128906 167.910156 92.453125 167.910156 L 108.804688 167.910156 C 109.101562 167.910156 109.355469 168.117188 109.417969 168.410156 L 112.421875 183.324219 L 114.089844 183.6875 L 110.550781 169.625 C 110.503906 169.4375 110.542969 169.238281 110.660156 169.085938 C 110.78125 168.933594 110.960938 168.84375 111.15625 168.84375 L 111.957031 168.84375 C 111.957031 168.84375 112.746094 165.9375 112.746094 165.9375 L 90.367188 165.9375 L 89.070312 178.171875 C 89.066406 178.203125 89.0625 178.234375 89.054688 178.265625 Z M 91.996094 178.902344 L 111.085938 183.035156 L 108.292969 169.160156 C 108.292969 169.160156 93.015625 169.160156 93.015625 169.160156 Z M 124.121094 194.035156 C 124.386719 194.839844 125.609375 198.527344 125.609375 198.527344 L 126.101562 198.367188 L 123.542969 190.636719 Z M 123.40625 201.386719 L 124.878906 202.980469 L 126.554688 202.53125 C 126.761719 202.476562 126.980469 202.53125 127.136719 202.671875 C 127.292969 202.816406 127.367188 203.03125 127.332031 203.238281 L 127.0625 204.871094 L 140.917969 204.371094 L 130.269531 194.582031 L 127.769531 198.808594 C 127.710938 198.90625 127.625 198.988281 127.523438 199.042969 L 127.417969 199.097656 C 127.34375 199.214844 127.230469 199.3125 127.085938 199.359375 L 126.640625 199.507812 L 124.960938 200.382812 C 124.925781 200.402344 124.886719 200.417969 124.84375 200.429688 C 124.839844 200.433594 124.835938 200.4375 124.832031 200.4375 Z M 141.984375 204.332031 L 143.183594 204.289062 L 132.738281 194.199219 C 132.738281 194.199219 131.617188 194.199219 130.957031 194.199219 Z M 121.625 197.351562 C 121.617188 197.453125 121.59375 197.554688 121.539062 197.648438 C 121.539062 197.648438 121.273438 198.109375 121.273438 198.109375 C 121.4375 198.566406 121.5625 199.035156 121.648438 199.511719 L 121.910156 199.660156 C 121.882812 198.789062 121.78125 198.023438 121.625 197.351562 Z M 96.464844 188.671875 C 96.433594 188.628906 96.402344 188.578125 96.382812 188.53125 L 91.984375 188.53125 L 91.984375 188.671875 Z M 112.964844 192.464844 C 112.609375 192.441406 112.253906 192.441406 111.902344 192.464844 L 111.652344 192.894531 C 111.558594 193.058594 111.390625 193.171875 111.203125 193.199219 C 110.617188 193.289062 110.039062 193.445312 109.484375 193.660156 C 109.304688 193.730469 109.109375 193.714844 108.941406 193.621094 C 108.941406 193.621094 108.511719 193.371094 108.511719 193.371094 C 108.195312 193.53125 107.886719 193.707031 107.589844 193.90625 L 107.589844 194.402344 C 107.589844 194.589844 107.503906 194.769531 107.355469 194.890625 C 106.890625 195.261719 106.46875 195.683594 106.09375 196.148438 C 105.976562 196.296875 105.796875 196.382812 105.609375 196.382812 C 105.609375 196.382812 105.109375 196.386719 105.109375 196.386719 C 104.910156 196.683594 104.738281 196.988281 104.578125 197.308594 L 104.824219 197.738281 C 104.921875 197.902344 104.9375 198.101562 104.867188 198.277344 C 104.648438 198.835938 104.496094 199.410156 104.402344 200 C 104.378906 200.1875 104.265625 200.351562 104.097656 200.449219 C 104.097656 200.449219 103.667969 200.695312 103.667969 200.695312 C 103.648438 201.050781 103.648438 201.40625 103.667969 201.761719 L 104.097656 202.011719 C 104.265625 202.105469 104.378906 202.269531 104.402344 202.457031 C 104.496094 203.046875 104.648438 203.625 104.867188 204.179688 C 104.9375 204.355469 104.921875 204.554688 104.824219 204.71875 C 104.824219 204.71875 104.578125 205.152344 104.578125 205.152344 C 104.738281 205.46875 104.910156 205.777344 105.109375 206.074219 L 105.609375 206.074219 C 105.796875 206.074219 105.976562 206.160156 106.09375 206.308594 C 106.46875 206.773438 106.890625 207.195312 107.355469 207.570312 C 107.503906 207.6875 107.589844 207.867188 107.589844 208.058594 C 107.589844 208.058594 107.589844 208.554688 107.589844 208.554688 C 107.886719 208.75 108.195312 208.929688 108.511719 209.085938 L 108.941406 208.839844 C 109.109375 208.742188 109.304688 208.730469 109.484375 208.796875 C 110.039062 209.015625 110.617188 209.167969 111.203125 209.257812 C 111.390625 209.289062 111.558594 209.398438 111.652344 209.5625 C 111.652344 209.5625 111.902344 209.996094 111.902344 209.996094 C 112.253906 210.015625 112.609375 210.015625 112.964844 209.996094 L 113.214844 209.5625 C 113.3125 209.398438 113.472656 209.289062 113.660156 209.257812 C 114.25 209.167969 114.832031 209.015625 115.386719 208.796875 C 115.558594 208.730469 115.761719 208.742188 115.921875 208.839844 C 115.921875 208.839844 116.355469 209.085938 116.355469 209.085938 C 116.675781 208.929688 116.984375 208.75 117.28125 208.554688 L 117.28125 208.058594 C 117.28125 207.867188 117.363281 207.6875 117.511719 207.570312 C 117.976562 207.195312 118.402344 206.773438 118.773438 206.308594 C 118.890625 206.160156 119.074219 206.074219 119.261719 206.074219 C 119.261719 206.074219 119.757812 206.074219 119.757812 206.074219 C 119.953125 205.777344 120.132812 205.46875 120.292969 205.152344 L 120.042969 204.71875 C 119.949219 204.554688 119.933594 204.355469 120.003906 204.179688 C 120.21875 203.625 120.371094 203.046875 120.464844 202.457031 C 120.492188 202.269531 120.605469 202.105469 120.769531 202.011719 C 120.769531 202.011719 121.199219 201.761719 121.199219 201.761719 C 121.222656 201.40625 121.222656 201.050781 121.199219 200.695312 L 120.769531 200.449219 C 120.605469 200.351562 120.492188 200.1875 120.464844 200 C 120.371094 199.410156 120.21875 198.835938 120.003906 198.277344 C 119.933594 198.101562 119.949219 197.902344 120.042969 197.738281 C 120.042969 197.738281 120.292969 197.308594 120.292969 197.308594 C 120.132812 196.988281 119.953125 196.683594 119.757812 196.386719 L 119.261719 196.382812 C 119.074219 196.382812 118.890625 196.296875 118.773438 196.148438 C 118.402344 195.683594 117.976562 195.261719 117.511719 194.890625 C 117.363281 194.769531 117.28125 194.589844 117.28125 194.402344 C 117.28125 194.402344 117.28125 193.90625 117.28125 193.90625 C 116.984375 193.707031 116.675781 193.53125 116.355469 193.371094 L 115.921875 193.621094 C 115.761719 193.714844 115.558594 193.730469 115.386719 193.660156 C 114.832031 193.445312 114.25 193.289062 113.660156 193.199219 C 113.472656 193.171875 113.3125 193.058594 113.214844 192.894531 Z M 112.433594 194.445312 C 116.179688 194.445312 119.214844 197.484375 119.214844 201.230469 C 119.214844 204.972656 116.179688 208.011719 112.433594 208.011719 C 108.691406 208.011719 105.648438 204.972656 105.648438 201.230469 C 105.648438 197.484375 108.691406 194.445312 112.433594 194.445312 Z M 112.433594 195.699219 C 109.378906 195.699219 106.902344 198.175781 106.902344 201.230469 C 106.902344 204.28125 109.378906 206.757812 112.433594 206.757812 C 115.484375 206.757812 117.964844 204.28125 117.964844 201.230469 C 117.964844 198.175781 115.484375 195.699219 112.433594 195.699219 Z M 112.433594 197.222656 C 114.648438 197.222656 116.441406 199.019531 116.441406 201.230469 C 116.441406 203.441406 114.648438 205.234375 112.433594 205.234375 C 110.222656 205.234375 108.429688 203.441406 108.429688 201.230469 C 108.429688 199.019531 110.222656 197.222656 112.433594 197.222656 Z M 112.433594 197.972656 C 110.636719 197.972656 109.179688 199.433594 109.179688 201.230469 C 109.179688 203.027344 110.636719 204.484375 112.433594 204.484375 C 114.230469 204.484375 115.691406 203.027344 115.691406 201.230469 C 115.691406 199.433594 114.230469 197.972656 112.433594 197.972656 Z M 90.335938 192.464844 C 89.976562 192.441406 89.621094 192.441406 89.269531 192.464844 L 89.023438 192.894531 C 88.925781 193.058594 88.757812 193.171875 88.570312 193.199219 C 87.984375 193.289062 87.40625 193.445312 86.851562 193.660156 C 86.671875 193.730469 86.476562 193.714844 86.308594 193.621094 C 86.308594 193.621094 85.878906 193.371094 85.878906 193.371094 C 85.5625 193.53125 85.253906 193.707031 84.957031 193.90625 L 84.957031 194.402344 C 84.957031 194.589844 84.871094 194.769531 84.722656 194.890625 C 84.257812 195.261719 83.835938 195.683594 83.464844 196.148438 C 83.34375 196.296875 83.164062 196.382812 82.976562 196.382812 C 82.976562 196.382812 82.476562 196.386719 82.476562 196.386719 C 82.277344 196.683594 82.105469 196.988281 81.945312 197.308594 L 82.191406 197.738281 C 82.289062 197.902344 82.304688 198.101562 82.234375 198.277344 C 82.015625 198.835938 81.863281 199.410156 81.773438 200 C 81.746094 200.1875 81.632812 200.351562 81.464844 200.449219 C 81.464844 200.449219 81.035156 200.695312 81.035156 200.695312 C 81.015625 201.050781 81.015625 201.40625 81.035156 201.761719 L 81.464844 202.011719 C 81.632812 202.105469 81.746094 202.269531 81.773438 202.457031 C 81.863281 203.046875 82.015625 203.625 82.234375 204.179688 C 82.304688 204.355469 82.289062 204.554688 82.191406 204.71875 C 82.191406 204.71875 81.945312 205.152344 81.945312 205.152344 C 82.105469 205.46875 82.277344 205.777344 82.476562 206.074219 L 82.976562 206.074219 C 83.164062 206.074219 83.34375 206.160156 83.464844 206.308594 C 83.835938 206.773438 84.257812 207.195312 84.722656 207.570312 C 84.871094 207.6875 84.957031 207.867188 84.957031 208.058594 C 84.957031 208.058594 84.957031 208.554688 84.957031 208.554688 C 85.253906 208.75 85.5625 208.929688 85.878906 209.085938 L 86.308594 208.839844 C 86.476562 208.742188 86.671875 208.730469 86.851562 208.796875 C 87.40625 209.015625 87.984375 209.167969 88.570312 209.257812 C 88.757812 209.289062 88.925781 209.398438 89.023438 209.5625 C 89.023438 209.5625 89.269531 209.996094 89.269531 209.996094 C 89.621094 210.015625 89.976562 210.015625 90.335938 209.996094 L 90.582031 209.5625 C 90.679688 209.398438 90.839844 209.289062 91.027344 209.257812 C 91.621094 209.167969 92.199219 209.015625 92.753906 208.796875 C 92.925781 208.730469 93.128906 208.742188 93.289062 208.839844 C 93.289062 208.839844 93.726562 209.085938 93.726562 209.085938 C 94.042969 208.929688 94.351562 208.75 94.648438 208.554688 L 94.648438 208.058594 C 94.648438 207.867188 94.734375 207.6875 94.878906 207.570312 C 95.347656 207.195312 95.769531 206.773438 96.140625 206.308594 C 96.261719 206.160156 96.441406 206.074219 96.628906 206.074219 C 96.628906 206.074219 97.125 206.074219 97.125 206.074219 C 97.320312 205.777344 97.5 205.46875 97.660156 205.152344 L 97.410156 204.71875 C 97.316406 204.554688 97.300781 204.355469 97.371094 204.179688 C 97.589844 203.625 97.742188 203.046875 97.832031 202.457031 C 97.859375 202.269531 97.972656 202.105469 98.136719 202.011719 C 98.136719 202.011719 98.570312 201.761719 98.570312 201.761719 C 98.589844 201.40625 98.589844 201.050781 98.570312 200.695312 L 98.136719 200.449219 C 97.972656 200.351562 97.859375 200.1875 97.832031 200 C 97.742188 199.410156 97.589844 198.835938 97.371094 198.277344 C 97.300781 198.101562 97.316406 197.902344 97.410156 197.738281 C 97.410156 197.738281 97.660156 197.308594 97.660156 197.308594 C 97.5 196.988281 97.320312 196.683594 97.125 196.386719 L 96.628906 196.382812 C 96.441406 196.382812 96.261719 196.296875 96.140625 196.148438 C 95.769531 195.683594 95.347656 195.261719 94.878906 194.890625 C 94.734375 194.769531 94.648438 194.589844 94.648438 194.402344 C 94.648438 194.402344 94.648438 193.90625 94.648438 193.90625 C 94.351562 193.707031 94.042969 193.53125 93.726562 193.371094 L 93.289062 193.621094 C 93.128906 193.714844 92.925781 193.730469 92.753906 193.660156 C 92.199219 193.445312 91.621094 193.289062 91.027344 193.199219 C 90.839844 193.171875 90.679688 193.058594 90.582031 192.894531 Z M 89.800781 194.445312 C 93.546875 194.445312 96.582031 197.484375 96.582031 201.230469 C 96.582031 204.972656 93.546875 208.011719 89.800781 208.011719 C 86.058594 208.011719 83.015625 204.972656 83.015625 201.230469 C 83.015625 197.484375 86.058594 194.445312 89.800781 194.445312 Z M 89.800781 195.699219 C 86.746094 195.699219 84.269531 198.175781 84.269531 201.230469 C 84.269531 204.28125 86.746094 206.757812 89.800781 206.757812 C 92.851562 206.757812 95.332031 204.28125 95.332031 201.230469 C 95.332031 198.175781 92.851562 195.699219 89.800781 195.699219 Z M 89.800781 197.222656 C 92.015625 197.222656 93.808594 199.019531 93.808594 201.230469 C 93.808594 203.441406 92.015625 205.234375 89.800781 205.234375 C 87.589844 205.234375 85.796875 203.441406 85.796875 201.230469 C 85.796875 199.019531 87.589844 197.222656 89.800781 197.222656 Z M 89.800781 197.972656 C 88.003906 197.972656 86.546875 199.433594 86.546875 201.230469 C 86.546875 203.027344 88.003906 204.484375 89.800781 204.484375 C 91.597656 204.484375 93.058594 203.027344 93.058594 201.230469 C 93.058594 199.433594 91.597656 197.972656 89.800781 197.972656 Z M 89.800781 197.972656 " fill-opacity="1" fill-rule="evenodd"/></g><g fill="#231991" fill-opacity="1"><g transform="translate(155.256719, 185.152752)"><g><path d="M 4.4375 -6.875 L 11.875 -6.875 L 11.875 -3.21875 L 0.78125 -3.234375 L 0.78125 -20.734375 L 4.4375 -20.734375 Z M 4.4375 -6.875 "/></g></g></g><g fill="#231991" fill-opacity="1"><g transform="translate(174.640325, 185.152752)"><g><path d="M 4.4375 -3.21875 L 0.78125 -3.21875 L 0.78125 -20.734375 L 4.4375 -20.734375 Z M 4.4375 -3.21875 "/></g></g></g><g fill="#231991" fill-opacity="1"><g transform="translate(186.56181, 185.152752)"><g><path d="M 7.390625 -6.875 L 8.25 -20.734375 L 11.890625 -20.734375 L 10.8125 -3.21875 L 1.859375 -3.21875 L 0.78125 -20.734375 L 4.4375 -20.734375 L 5.28125 -6.875 Z M 7.390625 -6.875 "/></g></g></g><g fill="#231991" fill-opacity="1"><g transform="translate(205.945414, 185.152752)"><g><path d="M 4.4375 -3.21875 L 0.78125 -3.21875 L 0.78125 -20.734375 L 4.4375 -20.734375 Z M 4.4375 -3.21875 "/></g></g></g><g fill="#231991" fill-opacity="1"><g transform="translate(217.866901, 185.152752)"><g><path d="M 11.875 -3.21875 L 8.21875 -3.21875 L 8.21875 -17.078125 L 4.4375 -17.078125 L 4.4375 -3.234375 L 0.78125 -3.234375 L 0.78125 -20.734375 L 11.875 -20.734375 Z M 11.875 -3.21875 "/></g></g></g><g fill="#231991" fill-opacity="1"><g transform="translate(237.224587, 185.152752)"><g><path d="M 0.78125 -20.734375 L 11.890625 -20.734375 L 11.890625 -17.078125 L 4.4375 -17.078125 L 4.4375 -6.875 L 8.21875 -6.875 L 8.21875 -10.15625 L 6.296875 -10.15625 L 6.296875 -13.8125 L 11.875 -13.8125 L 11.875 -3.21875 L 0.78125 -3.234375 Z M 0.78125 -20.734375 "/></g></g></g><g fill="#231991" fill-opacity="1"><g transform="translate(256.634097, 185.152752)"><g><path d="M 0.78125 -20.734375 L 11.875 -20.734375 L 11.875 -17.078125 L 4.4375 -17.078125 L 4.4375 -13.8125 L 11.875 -13.8125 L 11.875 -3.21875 L 0.796875 -3.21875 L 0.796875 -6.875 L 8.21875 -6.875 L 8.21875 -10.15625 L 0.78125 -10.15625 Z M 0.78125 -20.734375 "/></g></g></g><g fill="#231991" fill-opacity="1"><g transform="translate(276.017698, 185.152752)"><g><path d="M 11.890625 -17.078125 L 8.171875 -17.078125 L 8.171875 -3.21875 L 4.515625 -3.21875 L 4.515625 -17.078125 L 0.78125 -17.078125 L 0.78125 -20.734375 L 11.890625 -20.734375 Z M 11.890625 -17.078125 "/></g></g></g><g fill="#231991" fill-opacity="1"><g transform="translate(295.401299, 185.152752)"><g><path d="M 11.875 -20.734375 L 11.875 -3.21875 L 0.78125 -3.234375 L 0.78125 -20.734375 Z M 4.4375 -17.078125 L 4.4375 -6.875 L 8.21875 -6.875 L 8.21875 -17.078125 Z M 4.4375 -17.078125 "/></g></g></g><g fill="#231991" fill-opacity="1"><g transform="translate(314.758979, 185.152752)"><g><path d="M 11.875 -3.21875 L 8.21875 -3.21875 L 8.21875 -17.078125 L 4.4375 -17.078125 L 4.4375 -3.234375 L 0.78125 -3.234375 L 0.78125 -20.734375 L 11.875 -20.734375 Z M 11.875 -3.21875 "/></g></g></g><g fill="#231991" fill-opacity="1"><g transform="translate(155.256719, 212.15275)"><g><path d="M 11.875 -17.078125 L 4.4375 -17.078125 L 4.4375 -6.875 L 11.84375 -6.875 L 11.84375 -3.21875 L 0.78125 -3.234375 L 0.78125 -20.734375 L 11.875 -20.734375 Z M 11.875 -17.078125 "/></g></g></g><g fill="#231991" fill-opacity="1"><g transform="translate(174.640325, 212.15275)"><g><path d="M 11.875 -20.734375 L 11.875 -3.21875 L 0.78125 -3.234375 L 0.78125 -20.734375 Z M 4.4375 -17.078125 L 4.4375 -6.875 L 8.21875 -6.875 L 8.21875 -17.078125 Z M 4.4375 -17.078125 "/></g></g></g><g fill="#231991" fill-opacity="1"><g transform="translate(193.998009, 212.15275)"><g><path d="M 11.875 -3.21875 L 8.21875 -3.21875 L 8.21875 -17.078125 L 4.4375 -17.078125 L 4.4375 -3.234375 L 0.78125 -3.234375 L 0.78125 -20.734375 L 11.875 -20.734375 Z M 11.875 -3.21875 "/></g></g></g><g fill="#231991" fill-opacity="1"><g transform="translate(213.355692, 212.15275)"><g><path d="M 11.890625 -17.078125 L 8.171875 -17.078125 L 8.171875 -3.21875 L 4.515625 -3.21875 L 4.515625 -17.078125 L 0.78125 -17.078125 L 0.78125 -20.734375 L 11.890625 -20.734375 Z M 11.890625 -17.078125 "/></g></g></g><g fill="#231991" fill-opacity="1"><g transform="translate(232.739298, 212.15275)"><g><path d="M 4.4375 -3.1875 L 0.78125 -3.1875 L 0.78125 -20.71875 L 11.875 -20.6875 L 11.203125 -10.140625 L 11.796875 -3.21875 L 8.140625 -3.21875 L 7.71875 -10.140625 L 4.4375 -10.140625 Z M 4.4375 -17.0625 L 4.4375 -13.796875 L 7.796875 -13.796875 L 8.015625 -17.0625 Z M 4.4375 -17.0625 "/></g></g></g><g fill="#231991" fill-opacity="1"><g transform="translate(252.096983, 212.15275)"><g><path d="M 0.78125 -20.734375 L 11.875 -20.734375 L 11.875 -3.21875 L 8.21875 -3.21875 L 8.21875 -10.15625 L 4.4375 -10.15625 L 4.4375 -3.234375 L 0.78125 -3.234375 Z M 4.4375 -13.8125 L 8.21875 -13.8125 L 8.21875 -17.078125 L 4.4375 -17.078125 Z M 4.4375 -13.8125 "/></g></g></g><g fill="#231991" fill-opacity="1"><g transform="translate(271.454664, 212.15275)"><g><path d="M 11.875 -17.078125 L 4.4375 -17.078125 L 4.4375 -6.875 L 11.84375 -6.875 L 11.84375 -3.21875 L 0.78125 -3.234375 L 0.78125 -20.734375 L 11.875 -20.734375 Z M 11.875 -17.078125 "/></g></g></g><g fill="#231991" fill-opacity="1"><g transform="translate(290.838265, 212.15275)"><g><path d="M 11.890625 -17.078125 L 8.171875 -17.078125 L 8.171875 -3.21875 L 4.515625 -3.21875 L 4.515625 -17.078125 L 0.78125 -17.078125 L 0.78125 -20.734375 L 11.890625 -20.734375 Z M 11.890625 -17.078125 "/></g></g></g><g fill="#231991" fill-opacity="1"><g transform="translate(310.221866, 212.15275)"><g><path d="M 4.4375 -3.21875 L 0.78125 -3.21875 L 0.78125 -20.734375 L 4.4375 -20.734375 Z M 4.4375 -3.21875 "/></g></g></g><g fill="#231991" fill-opacity="1"><g transform="translate(322.143347, 212.15275)"><g><path d="M 11.875 -3.21875 L 8.21875 -3.21875 L 8.21875 -17.078125 L 4.4375 -17.078125 L 4.4375 -3.234375 L 0.78125 -3.234375 L 0.78125 -20.734375 L 11.875 -20.734375 Z M 11.875 -3.21875 "/></g></g></g><g fill="#231991" fill-opacity="1"><g transform="translate(341.501027, 212.15275)"><g><path d="M 0.78125 -20.734375 L 11.890625 -20.734375 L 11.890625 -17.078125 L 4.4375 -17.078125 L 4.4375 -6.875 L 8.21875 -6.875 L 8.21875 -10.15625 L 6.296875 -10.15625 L 6.296875 -13.8125 L 11.875 -13.8125 L 11.875 -3.21875 L 0.78125 -3.234375 Z M 0.78125 -20.734375 "/></g></g></g><g fill="#231991" fill-opacity="1"><g transform="translate(360.920768, 212.15275)"><g/></g></g></svg>